<svg width="22" height="12" viewBox="0 0 22 12" fill="none" xmlns="http://www.w3.org/2000/svg" xmlns:xlink="http://www.w3.org/1999/xlink">
<path d="M2.721,-0.561C2.135,-1.146 1.185,-1.146 0.599,-0.561C0.014,0.025 0.014,0.975 0.599,1.561L2.721,-0.561ZM10.66,9.5L9.599,10.561C10.185,11.146 11.135,11.146 11.721,10.561L10.66,9.5ZM20.721,1.561C21.307,0.975 21.307,0.025 20.721,-0.561C20.135,-1.146 19.185,-1.146 18.599,-0.561L20.721,1.561ZM0.599,1.561L9.599,10.561L11.721,8.439L2.721,-0.561L0.599,1.561ZM11.721,10.561L20.721,1.561L18.599,-0.561L9.599,8.439L11.721,10.561Z" fill="#343A40"/>
</svg>
