<svg width="32" height="28" viewBox="0 0 32 28" fill="none" xmlns="http://www.w3.org/2000/svg" xmlns:xlink="http://www.w3.org/1999/xlink">
<path d="M8.539,26.73C7.016,26.73 5.609,26.35 4.32,25.588C3.031,24.826 2.006,23.801 1.244,22.512C0.482,21.223 0.102,19.816 0.102,18.293C0.102,17.004 0.57,15.668 1.508,14.285C1.953,13.605 2.41,13.055 2.879,12.633L15.852,-0.375L29.246,13.055C29.598,13.43 29.926,13.828 30.231,14.25C30.629,14.836 30.945,15.434 31.18,16.043C31.461,16.816 31.602,17.566 31.602,18.293C31.602,19.816 31.221,21.223 30.459,22.512C29.697,23.801 28.672,24.826 27.383,25.588C26.094,26.35 24.688,26.73 23.164,26.73C20.445,26.73 18.008,25.629 15.852,23.426C13.695,25.629 11.258,26.73 8.539,26.73ZM8.539,24.48C9.313,24.48 10.121,24.305 10.965,23.953C11.645,23.695 12.336,23.332 13.039,22.863C13.531,22.512 14.012,22.137 14.48,21.738L15.008,21.211L15.852,20.262L16.695,21.211L17.223,21.738C17.691,22.137 18.172,22.512 18.664,22.863C19.367,23.332 20.059,23.695 20.738,23.953C21.582,24.305 22.391,24.48 23.164,24.48C24.289,24.48 25.326,24.199 26.275,23.637C27.225,23.074 27.975,22.318 28.525,21.369C29.076,20.42 29.352,19.395 29.352,18.293C29.352,17.777 29.164,17.168 28.789,16.465C28.531,15.949 28.203,15.422 27.805,14.883L27.242,14.215L15.852,2.824L4.461,14.215L4.109,14.566C3.852,14.895 3.605,15.223 3.371,15.551C3.066,15.996 2.832,16.441 2.668,16.887C2.457,17.402 2.352,17.871 2.352,18.293C2.352,19.395 2.627,20.42 3.178,21.369C3.729,22.318 4.479,23.074 5.428,23.637C6.377,24.199 7.414,24.48 8.539,24.48Z" fill="#000000"/>
</svg>
